<?xml version="1.0" encoding="UTF-8" standalone="no"?>
<!-- Created with Inkscape (http://www.inkscape.org/) -->

<svg
   width="360"
   height="240"
   viewBox="0 0 95.25 63.499998"
   version="1.1"
   id="svg1"
   inkscape:version="1.4 (e7c3feb1, 2024-10-09)"
   sodipodi:docname="letters.svg"
   xmlns:inkscape="http://www.inkscape.org/namespaces/inkscape"
   xmlns:sodipodi="http://sodipodi.sourceforge.net/DTD/sodipodi-0.dtd"
   xmlns:xlink="http://www.w3.org/1999/xlink"
   xmlns="http://www.w3.org/2000/svg"
   xmlns:svg="http://www.w3.org/2000/svg">
  <sodipodi:namedview
     id="namedview1"
     pagecolor="#ffffff"
     bordercolor="#ffffff"
     borderopacity="1"
     inkscape:showpageshadow="0"
     inkscape:pageopacity="0"
     inkscape:pagecheckerboard="1"
     inkscape:deskcolor="#505050"
     inkscape:document-units="mm"
     inkscape:zoom="3.8482256"
     inkscape:cx="130.05994"
     inkscape:cy="75.749197"
     inkscape:window-width="1440"
     inkscape:window-height="900"
     inkscape:window-x="0"
     inkscape:window-y="0"
     inkscape:window-maximized="0"
     inkscape:current-layer="layer1" />
  <defs
     id="defs1">
    <linearGradient
       id="linearGradient33"
       inkscape:collect="always">
      <stop
         style="stop-color:#000000;stop-opacity:0;"
         offset="0"
         id="stop33" />
      <stop
         style="stop-color:#a9a9a9;stop-opacity:0;"
         offset="1"
         id="stop34" />
    </linearGradient>
    <radialGradient
       inkscape:collect="always"
       xlink:href="#linearGradient33"
       id="radialGradient34"
       cx="47.472157"
       cy="8.897418"
       fx="47.472157"
       fy="8.897418"
       r="3.0971661"
       gradientTransform="matrix(1,0,0,1.3477317,0,-3.0939145)"
       gradientUnits="userSpaceOnUse" />
  </defs>
  <g
     inkscape:label="Layer 1"
     inkscape:groupmode="layer"
     id="layer1">
    <circle
       id="path2"
       style="fill:#1e1e1e;stroke:#ffffff;stroke-width:0.264583"
       cx="5.982089"
       cy="22.321228"
       r="0.0007618852" />
    <path
       style="fill:#1e1e1e;fill-opacity:1;stroke:#ffffff;stroke-width:0.113;stroke-linecap:round;stroke-linejoin:round;stroke-miterlimit:3.7;stroke-dashoffset:1.61008;stroke-opacity:0;paint-order:markers fill stroke"
       id="path20"
       d="M 7.6036211,6.8653455 C 7.5878123,8.0243248 7.279192,9.1591325 6.9917793,10.274204 6.588862,11.77465 6.0195298,13.223077 5.3093379,14.603357 c -0.2720668,0.507539 -0.5562129,1.01654 -0.9223788,1.463689 -0.014306,0.0122 -0.060818,0.03085 -0.042917,0.0366 0.1877202,0.06027 0.378847,0.130747 0.5759677,0.134537 0.045195,8.73e-4 0.038089,-0.08201 0.058511,-0.122338 0.040901,-0.08077 0.082976,-0.160941 0.1254339,-0.240902 0.03293,-0.06202 0.4160099,-0.772282 0.422229,-0.783817 0.6479018,-1.188331 1.1596557,-2.444044 1.6416464,-3.70679 C 7.4722872,10.605464 7.745543,9.8152563 8.023554,9.026795 8.043837,8.969963 8.062824,8.9126517 8.084401,8.8562981 8.106666,8.7981491 8.113603,8.7199919 8.167653,8.6890798 c 0.00877,-0.00502 0.02906,0.025347 0.019113,0.023543 C 7.610041,8.6079363 7.6013963,8.405356 7.6572093,8.690543 c 0.033305,0.7607871 0.1076741,1.515121 0.2304836,2.266774 0.1796653,1.07898 0.6125292,2.079173 1.1372921,3.030203 0.1653373,0.302057 0.3592695,0.586301 0.5551858,0.868839 0,0 0.5545582,0.09736 0.5545582,0.09736 v 0 C 9.9296841,14.672555 9.7266026,14.389571 9.5545663,14.086357 9.0181521,13.145022 8.5794039,12.150721 8.4052684,11.072928 8.2884131,10.325884 8.2188385,9.5765169 8.2292501,8.8195591 8.2019179,8.5096143 8.2501284,8.6792246 7.6325517,8.4916012 7.6058116,8.4834784 7.5584478,8.6122554 7.5284737,8.7036763 7.5096962,8.7609473 7.4924501,8.8187087 7.4744383,8.8762249 7.227022,9.6728133 6.9677493,10.465723 6.6746831,11.246927 6.2015906,12.511948 5.6875663,13.766992 5.0124597,14.939869 4.8180725,15.27944 4.6189794,15.615668 4.4207803,15.952961 c -0.026421,0.04496 -0.120672,0.106416 -0.077616,0.135839 0.4819462,0.329349 0.4497062,0.340099 0.6014236,0.151421 0.3365008,-0.467635 0.613859,-0.975565 0.8706218,-1.490285 C 6.4951519,13.353164 7.0433614,11.896775 7.4557476,10.3983 7.7553695,9.2823984 8.0740802,8.1581296 8.1789116,7.0034609 Z" />
    <path
       style="fill:#1e1e1e;fill-opacity:1;stroke:#ffffff;stroke-width:0.113;stroke-linecap:round;stroke-linejoin:round;stroke-miterlimit:3.7;stroke-dashoffset:1.61008;stroke-opacity:0;paint-order:markers fill stroke"
       id="path21"
       d="m 6.3047112,12.428629 c 0.6382967,-0.258163 1.2856689,-0.491423 1.9386716,-0.709361 0,0 -0.5162378,-0.194328 -0.5162378,-0.194328 v 0 c -0.6587744,0.226679 -1.3116417,0.470329 -1.971549,0.693184 z" />
    <path
       style="fill:#1e1e1e;fill-opacity:1;stroke:#ffffff;stroke-width:0.113;stroke-linecap:round;stroke-linejoin:round;stroke-miterlimit:3.7;stroke-dashoffset:1.61008;stroke-opacity:0;paint-order:markers fill stroke"
       id="path22"
       d="m 11.949376,7.5829291 c 0.05022,0.828498 0.05789,1.6590039 0.07839,2.4886149 0.01635,0.939402 0.03777,1.878671 0.06084,2.81793 0.0054,0.266209 0.0138,0.532358 0.01945,0.79856 0.0084,0.287736 -0.0473,0.09741 0.585307,0.200365 -0.02294,-0.507962 -0.03745,-1.01617 -0.049,-1.524505 -0.0332,-1.180971 -0.09001,-2.36108 -0.131454,-3.5417716 -0.02206,-0.6350492 -0.03617,-1.2703334 -0.04098,-1.9057419 0.009,-0.083823 -0.0071,-0.1688783 3.44e-4,-0.2528226 0.0019,-0.020974 5.02e-4,-0.045699 0.0144,-0.061507 0.0082,-0.00937 0.04954,0.00541 0.03736,0.00269 -0.158467,-0.035431 -0.314556,-0.090104 -0.476578,-0.1008883 -0.05538,-0.00369 0.09774,0.052616 0.146606,0.078924 0.384518,0.2631966 0.766054,0.5422066 1.088433,0.8811379 0.06331,0.066564 0.120874,0.1383739 0.181311,0.2075608 0.0475,0.07457 0.103281,0.1444718 0.142503,0.2237097 0.170333,0.3441145 0.154216,0.736277 0.03286,1.0926786 -0.03073,0.090255 -0.07485,0.1753836 -0.112277,0.2630752 -0.222678,0.4420526 -0.602112,0.7372779 -1.008804,0.9980752 -0.110367,0.07343 -0.231481,0.128958 -0.341891,0.202248 -0.03172,0.02106 -0.107008,0.07293 -0.05628,0.09158 0.206904,0.07606 0.424628,0.118603 0.636943,0.177905 0.693271,-0.0515 1.386696,-0.07306 2.081535,-0.05308 0.172214,0.01473 0.609202,0.03448 0.779889,0.114745 0.0554,0.02605 -0.202946,-0.05097 -0.183516,0.0071 0.03607,0.107756 0.185098,0.135093 0.259769,0.220746 0.211476,0.242578 0.216589,0.363924 0.314537,0.664562 0.0096,0.131158 0.03596,0.262153 0.0289,0.393475 -0.02309,0.42956 -0.217721,0.813519 -0.500863,1.129628 -0.246458,0.275154 -0.403539,0.361704 -0.702487,0.574495 -0.625095,0.381319 -1.319836,0.619534 -2.026775,0.795193 -0.200804,0.0466 -0.402867,0.08756 -0.605761,0.123907 0,0 0.545983,0.213554 0.545983,0.213554 v 0 c 0.191563,-0.04306 0.3822,-0.0901 0.571898,-0.140766 0.692737,-0.196855 1.373712,-0.448596 1.988721,-0.829226 0.302914,-0.21839 0.461041,-0.307089 0.71136,-0.58794 0.291207,-0.326725 0.48982,-0.719902 0.518929,-1.162013 0.0089,-0.134834 -0.01547,-0.269811 -0.0232,-0.404716 -0.09101,-0.30628 -0.09661,-0.438455 -0.301082,-0.691081 -0.291473,-0.360119 -0.586697,-0.371232 -1.072968,-0.515694 -0.266819,-0.07927 -0.49397,-0.0802 -0.770383,-0.100824 -0.718062,-0.01657 -1.434478,0.01492 -2.152259,0.02115 0.161433,0.05603 0.325287,0.10553 0.484301,0.168104 0.0077,0.003 -0.02606,0.02045 -0.02027,0.0145 0.101898,-0.104708 0.252045,-0.151547 0.363123,-0.244205 0.402886,-0.276824 0.780287,-0.5843857 0.998358,-1.0350097 0.03773,-0.090302 0.082,-0.1781458 0.113201,-0.2709066 0.123692,-0.3677038 0.150993,-0.775236 -0.01777,-1.1343181 C 14.101335,7.909802 14.04468,7.8371868 13.997006,7.7597168 13.93562,7.688877 13.877189,7.6153655 13.812849,7.5471977 13.495842,7.2113287 13.121541,6.935081 12.754377,6.6577879 12.465686,6.4603214 12.557433,6.50071 11.968876,6.4064025 c -0.02281,-0.00366 -0.03898,0.028332 -0.04876,0.049264 -0.04196,0.089796 0.02585,0.2399541 0.008,0.3320233 0.03678,0.6405599 0.0698,1.2813265 0.10642,1.9218954 0.06681,1.1789193 0.143807,2.3585258 0.133713,3.5399928 -0.01151,0.499315 -0.0232,0.998821 -0.05221,1.497496 0.194337,0.04922 0.389817,0.09412 0.58301,0.14765 0.0043,0.0012 -0.0012,0.0094 -0.0043,0.01271 -0.0054,0.0059 -0.01145,-0.07935 -0.01374,-0.08604 -0.03143,-0.268986 -0.04815,-0.53961 -0.0709,-0.809384 -0.0679,-0.943031 -0.117197,-1.887315 -0.130464,-2.832871 -0.01024,-0.8195449 -0.01295,-1.639993 0.04503,-2.4580939 z" />
    <path
       style="fill:#1e1e1e;fill-opacity:1;stroke:#ffffff;stroke-width:0.113;stroke-linecap:round;stroke-linejoin:round;stroke-miterlimit:3.7;stroke-dashoffset:1.61008;stroke-opacity:0;paint-order:markers fill stroke"
       id="path23"
       d="M 23.127851,7.2067496 C 23.085799,6.9653824 22.957171,6.7549992 22.819099,6.5575073 22.583599,6.2422039 22.334285,6.0690151 21.977433,5.9144431 21.622466,5.8111344 21.259214,5.6374003 20.888563,5.7546538 c -0.268696,0.085 -0.42366,0.2457614 -0.617629,0.4392517 -0.52699,0.6229345 -0.735156,1.3628632 -0.920401,2.139769 -0.122709,0.6068672 -0.176109,1.2315471 -0.09267,1.8477935 0.05833,0.430843 0.101679,0.512726 0.228189,0.926743 0.262735,0.685072 0.645372,1.35384 1.239913,1.806016 0.10229,0.0778 0.216783,0.138085 0.325174,0.207127 0.475931,0.207295 0.992003,0.365415 1.51568,0.318167 0.294094,-0.02653 0.573736,-0.114944 0.852183,-0.206568 0.290262,-0.102242 0.560434,-0.248725 0.792222,-0.451033 0,0 -0.551846,-0.182753 -0.551846,-0.182753 v 0 c -0.216831,0.198425 -0.473909,0.340851 -0.749799,0.441642 -0.27188,0.09086 -0.543149,0.176282 -0.831615,0.196872 -0.109464,0.0078 -0.229351,-0.0454 -0.329227,7.9e-5 -0.05359,0.0244 0.215727,0.09216 0.158686,0.07757 -0.118001,-0.03018 -0.228946,-0.08321 -0.343418,-0.124821 -0.110114,-0.06643 -0.226318,-0.123673 -0.330341,-0.199282 -0.602358,-0.437825 -0.994576,-1.099977 -1.259816,-1.78125 -0.127342,-0.408362 -0.171532,-0.490356 -0.229799,-0.916019 -0.08359,-0.6106509 -0.02935,-1.2300071 0.09439,-1.8309086 0.03482,-0.1437437 0.06522,-0.2886287 0.104447,-0.4312309 0.167162,-0.6076373 0.418158,-1.1946144 0.840031,-1.6704577 0.203404,-0.1884614 0.347645,-0.3312078 0.625062,-0.4016648 0.06206,-0.015761 0.126293,-0.024339 0.190294,-0.026093 0.0608,-0.00167 0.236662,0.042123 0.181785,0.015886 -0.112492,-0.053782 -0.240084,-0.067434 -0.360127,-0.1011513 0.356725,0.1427721 0.605659,0.3014401 0.842367,0.6112608 0.131534,0.1837463 0.256333,0.3793239 0.287212,0.6083009 z" />
    <path
       style="fill:#1e1e1e;fill-opacity:1;stroke:#ffffff;stroke-width:0.113;stroke-linecap:round;stroke-linejoin:round;stroke-miterlimit:3.7;stroke-dashoffset:1.61008;stroke-opacity:0;paint-order:markers fill stroke"
       id="path24"
       d="m 26.500494,5.5728589 c 0.05374,1.0541082 0.0807,2.1095274 0.124048,3.1641642 0.06118,1.4082699 0.112985,2.8169449 0.154212,4.2259369 0,0 0.438645,0.103229 0.438645,0.103229 v 0 c -0.08525,-1.409993 -0.157978,-2.820836 -0.188373,-4.2332489 -0.01513,-1.0409079 -0.02709,-2.0835217 0.04269,-3.1229424 z" />
    <path
       style="fill:#1e1e1e;fill-opacity:1;stroke:#ffffff;stroke-width:0.113;stroke-linecap:round;stroke-linejoin:round;stroke-miterlimit:3.7;stroke-dashoffset:1.61008;stroke-opacity:0;paint-order:markers fill stroke"
       id="path25"
       d="m 27.156248,6.1388219 c 0.362236,-0.041611 0.711245,-0.018793 1.070327,0.037847 -0.08775,-0.022286 -0.266433,-0.1573323 -0.263247,-0.066854 0.0034,0.096164 0.180636,0.068236 0.26493,0.1146442 0.0932,0.051311 0.18347,0.1094277 0.265382,0.1773203 0.217504,0.1802781 0.378153,0.3835567 0.516769,0.6311419 0.08894,0.158855 0.154244,0.3298311 0.231367,0.4947467 0.36498,1.0003115 0.607184,2.0705646 0.514771,3.141744 -0.01532,0.177436 -0.05286,0.352245 -0.0793,0.528368 -0.127577,0.555823 -0.367726,1.022432 -0.772705,1.424425 -0.167568,0.166335 -0.261683,0.226725 -0.445952,0.363429 -0.256488,0.162029 -0.518406,0.336431 -0.81746,0.406285 -0.119189,0.01939 -0.237043,0.0046 -0.355184,-0.01221 0,0 0.534905,0.229243 0.534905,0.229243 v 0 c 0.120407,0.01242 0.240924,0.0196 0.359918,-0.01 0.291293,-0.08905 0.544544,-0.265812 0.791938,-0.438936 0.177908,-0.14248 0.271404,-0.20806 0.432461,-0.378672 0.396126,-0.41962 0.627216,-0.898433 0.742061,-1.463883 0.0227,-0.178952 0.05597,-0.356877 0.06809,-0.536854 C 30.287706,9.7059376 30.048895,8.6354802 29.716473,7.6208669 29.554426,7.2347682 29.516887,7.070776 29.272153,6.7457287 28.862729,6.201946 28.371953,6.1129261 27.725708,5.9603393 27.354866,5.9066204 26.981121,5.8865235 26.606934,5.9192506 Z" />
    <path
       style="fill:#1e1e1e;fill-opacity:1;stroke:#ffffff;stroke-width:0.113;stroke-linecap:round;stroke-linejoin:round;stroke-miterlimit:3.7;stroke-dashoffset:1.61008;stroke-opacity:0;paint-order:markers fill stroke"
       id="path26"
       d="m 32.028415,6.0390193 c 0.136774,1.2953351 0.212119,2.5956077 0.27694,3.896185 0.04674,1.0191007 0.07414,2.0389367 0.09491,3.0588517 0.0049,0.215101 0.0075,0.430242 0.01119,0.645364 0,0 0.570916,0.133672 0.570916,0.133672 v 0 c -0.02069,-0.218321 -0.03939,-0.436808 -0.05597,-0.655483 -0.08083,-1.028113 -0.152577,-2.056947 -0.212225,-3.086519 -0.04584,-0.8336946 -0.08992,-1.6672252 -0.115618,-2.5018443 -0.01326,-0.4306607 -0.0218,-0.7140429 -0.01331,-1.1276668 0.0016,-0.075463 0.0076,-0.1507686 0.01135,-0.2261529 z" />
    <path
       style="fill:#1e1e1e;fill-opacity:1;stroke:#ffffff;stroke-width:0.113;stroke-linecap:round;stroke-linejoin:round;stroke-miterlimit:3.7;stroke-dashoffset:1.61008;stroke-opacity:0;paint-order:markers fill stroke"
       id="path27"
       d="m 32.498903,6.4860788 c 0.389337,-0.1438341 0.76604,-0.3193515 1.147484,-0.4824695 0.353867,-0.1556084 0.711867,-0.3013678 1.0687,-0.4499256 0,0 -0.53235,-0.1952196 -0.53235,-0.1952196 v 0 c -0.34364,0.1578208 -0.690448,0.3088143 -1.036576,0.4610669 -0.269711,0.1133038 -0.538216,0.2305595 -0.813009,0.3312543 -0.07889,0.028909 -0.226753,0.080812 -0.318297,0.100842 -0.02143,0.00469 -0.04363,0.00456 -0.06545,0.00684 z" />
    <path
       style="fill:#1e1e1e;fill-opacity:1;stroke:#ffffff;stroke-width:0.113;stroke-linecap:round;stroke-linejoin:round;stroke-miterlimit:3.7;stroke-dashoffset:1.61008;stroke-opacity:0;paint-order:markers fill stroke"
       id="path28"
       d="m 33.082735,9.9657637 c 0.279995,-0.09532 0.564589,-0.1762533 0.845436,-0.2688561 0,0 -0.52973,-0.1997313 -0.52973,-0.1997313 v 0 c -0.285078,0.095842 -0.573643,0.1837653 -0.865939,0.254645 z" />
    <path
       style="fill:#1e1e1e;fill-opacity:1;stroke:#ffffff;stroke-width:0.113;stroke-linecap:round;stroke-linejoin:round;stroke-miterlimit:3.7;stroke-dashoffset:1.61008;stroke-opacity:0;paint-order:markers fill stroke"
       id="path29"
       d="m 33.022212,13.348731 c 0.333218,-0.132933 0.679341,-0.234059 1.025519,-0.327491 0.362691,-0.09618 0.726657,-0.189048 1.095685,-0.257727 0.188248,-0.03467 0.379415,-0.04374 0.567661,-0.07768 0.07594,-0.01592 0.152318,-0.02922 0.229216,-0.03947 0,0 -0.550492,-0.218406 -0.550492,-0.218406 v 0 c -0.0748,0.01267 -0.149016,0.02825 -0.223327,0.04351 -0.184457,0.03276 -0.372176,0.04363 -0.55553,0.08356 -0.361264,0.07562 -0.71638,0.176989 -1.073277,0.2705 -0.357811,0.09632 -0.712462,0.203375 -1.067199,0.31034 z" />
    <path
       style="fill:#1e1e1e;fill-opacity:1;stroke:#ffffff;stroke-width:0.113;stroke-linecap:round;stroke-linejoin:round;stroke-miterlimit:3.7;stroke-dashoffset:1.61008;stroke-opacity:0.18181819;paint-order:markers fill stroke"
       id="path30"
       d="m 36.873537,5.824766 c 0.166534,1.3835433 0.330964,2.7671689 0.480232,4.1527095 0.153193,1.5299755 0.286779,3.0618065 0.413213,4.5941935 0.03552,0.438869 0.01879,0.232891 0.05017,0.617936 0,0 0.528185,0.120568 0.528185,0.120568 v 0 c -0.0558,-0.390383 -0.02622,-0.181565 -0.0885,-0.626487 C 38.050231,13.14463 37.855808,11.603703 37.705043,10.058032 37.573439,8.6980029 37.41421,7.3319488 37.45086,5.9633691 Z" />
    <path
       style="fill:#1e1e1e;fill-opacity:1;stroke:#ffffff;stroke-width:0.113;stroke-linecap:round;stroke-linejoin:round;stroke-miterlimit:3.7;stroke-dashoffset:1.61008;stroke-opacity:0.18181819;paint-order:markers fill stroke"
       id="path31"
       d="m 37.373573,6.2367858 c 0.658577,-0.2714795 1.311198,-0.55703 1.966693,-0.8358323 0.539011,-0.2305444 1.078224,-0.4606205 1.617477,-0.6905998 0.14678,-0.055302 0.07847,-0.030116 0.20479,-0.075946 0,0 -0.544565,-0.2018874 -0.544565,-0.2018874 v 0 c -0.117422,0.050637 -0.05359,0.022833 -0.191379,0.083678 -0.515316,0.2443239 -1.032737,0.4843478 -1.55558,0.7122102 -0.67336,0.2884715 -1.346076,0.5855821 -2.048018,0.7988987 z" />
    <path
       style="fill:#1e1e1e;fill-opacity:1;stroke:#ffffff;stroke-width:0.113;stroke-linecap:round;stroke-linejoin:round;stroke-miterlimit:3.7;stroke-dashoffset:1.61008;stroke-opacity:0.18181819;paint-order:markers fill stroke"
       id="path32"
       d="m 37.470188,10.26393 c 0.325927,-0.01344 0.639331,-0.127999 0.95023,-0.217604 0.235966,-0.07292 0.472802,-0.1428172 0.708734,-0.215848 0,0 -0.514818,-0.1951056 -0.514818,-0.1951056 v 0 c -0.234183,0.074687 -0.469019,0.1471298 -0.705165,0.2154206 -0.321813,0.088223 -0.648825,0.197442 -0.986547,0.186327 z" />
    <path
       style="fill:#1e1e1e;fill-opacity:1;stroke:url(#radialGradient34);stroke-width:0.113;stroke-linecap:round;stroke-linejoin:round;stroke-miterlimit:3.7;stroke-dashoffset:1.61008;stroke-opacity:0.57454544;paint-order:markers fill stroke"
       id="path33"
       d="M 48.995443,5.777177 C 48.810507,5.5526913 48.574803,5.3844054 48.332122,5.2284479 48.159659,5.1328113 47.97989,5.0439809 47.789036,4.9907023 47.562068,4.927342 47.163304,4.7899304 46.866251,4.7801847 c -0.0666,-0.0022 -0.133175,0.00529 -0.199763,0.00793 -0.06782,0.015772 -0.137557,0.024836 -0.203459,0.047317 -0.443228,0.1511895 -0.747427,0.5342893 -1.01785,0.8937061 -0.438105,0.6438596 -0.656505,1.3359569 -0.835355,2.0848413 -0.12377,0.595146 -0.217848,1.2041838 -0.161653,1.8135658 0.01079,0.1171236 0.03228,0.2330151 0.04843,0.3495225 0.114678,0.5685646 0.328377,1.1168876 0.639257,1.6074786 0.05656,0.08926 0.120179,0.173849 0.180269,0.260773 0.292904,0.377251 0.65473,0.689038 1.099346,0.871953 0.08345,0.03433 0.170426,0.05938 0.25564,0.08907 0.434123,0.127874 0.84124,0.261458 1.289259,0.187434 0.265687,-0.0439 0.494692,-0.153576 0.731502,-0.274941 0.361553,-0.222308 0.707168,-0.483357 0.982072,-0.809673 0.04843,-0.05749 0.09157,-0.119228 0.137364,-0.178842 0.178755,-0.269016 0.32866,-0.568435 0.388342,-0.888792 0.01019,-0.05473 0.01368,-0.110505 0.02053,-0.165757 0.0032,-0.278052 -0.09506,-0.539213 -0.309335,-0.7232775 -0.04622,-0.039701 -0.099,-0.071044 -0.148505,-0.1065654 -0.404334,-0.2068139 -0.859986,-0.3664098 -1.318096,-0.3718028 -0.18151,-0.00214 -0.256821,0.018759 -0.433782,0.04885 -0.271222,0.065539 -0.543452,0.1520818 -0.775491,0.3109148 -0.0088,0.013761 -0.02663,0.024974 -0.02627,0.041281 5.29e-4,0.023574 0.0059,0.05842 0.02859,0.064702 0.217567,0.060137 0.440569,0.1043409 0.665147,0.1270509 0.05363,0.0054 0.103886,-0.0288 0.155585,-0.04405 0.184796,-0.054522 0.24111,-0.074115 0.430742,-0.1353045 0.223465,-0.069052 0.441529,-0.1538298 0.662244,-0.2308151 0.05733,-0.019997 0.23721,-0.086732 0.310372,-0.084268 0.03961,0.00132 0.07556,0.023929 0.113345,0.035892 -0.144314,-0.014296 -0.309041,-0.1182484 -0.432943,-0.04289 -0.07462,0.045384 0.08917,0.1507484 0.123701,0.2309719 0.0482,0.1120029 0.08659,0.2280987 0.12383,0.3442057 0.137073,0.427334 0.232564,0.866927 0.333007,1.303781 0.09577,0.427157 0.177642,0.857193 0.256368,1.287749 0,0 0.534133,0.116859 0.534133,0.116859 v 0 c -0.09833,-0.432972 -0.196397,-0.866013 -0.298108,-1.298209 -0.101944,-0.43514 -0.197083,-0.872839 -0.313936,-1.304318 -0.03145,-0.116136 -0.06268,-0.232502 -0.101391,-0.346424 -0.02826,-0.083172 -0.02715,-0.1939634 -0.09926,-0.2441144 -0.193956,-0.1348769 -0.434562,-0.18547 -0.651841,-0.2782051 -0.03937,-0.0038 -0.07875,-0.015211 -0.118128,-0.011388 -0.07072,0.00687 -0.242144,0.074995 -0.299083,0.096267 -0.216675,0.080952 -0.432586,0.1643785 -0.654418,0.2306397 -0.15898,0.047545 -0.285072,0.088042 -0.445293,0.1258467 -0.05472,0.012912 -0.212932,0.00315 -0.165383,0.033159 0.0057,0.0036 0.645477,0.070222 0.410329,0.1921461 -0.0068,0.0035 0.0072,-0.01352 0.01082,-0.02028 0.2188,-0.1552555 0.479663,-0.2374644 0.738756,-0.297142 0.178211,-0.026188 0.244809,-0.044537 0.427189,-0.036249 0.07296,0.00332 0.278786,0.065261 0.217633,0.025334 -0.09363,-0.061134 -0.212757,-0.070397 -0.322149,-0.093574 -0.125915,-0.026677 0.478354,0.1418357 0.357547,0.1457965 0.04914,0.032051 0.101219,0.059985 0.14741,0.096153 0.211133,0.1653245 0.316532,0.4085155 0.318855,0.6731545 -0.0056,0.0532 -0.0076,0.106885 -0.01664,0.159609 -0.05364,0.313264 -0.198874,0.606342 -0.371854,0.869279 -0.04471,0.05829 -0.08698,0.118546 -0.134143,0.174867 -0.269759,0.3221 -0.608822,0.580633 -0.969132,0.792982 -0.235797,0.115562 -0.46264,0.218209 -0.726035,0.254376 -0.08294,0.01139 -0.16696,0.01675 -0.250672,0.01559 -0.08503,-0.0012 -0.262419,-0.107177 -0.254108,-0.02255 0.0089,0.09076 0.173466,0.05639 0.260199,0.08459 -0.08559,-0.02774 -0.172852,-0.05078 -0.256783,-0.08321 -0.447146,-0.172762 -0.813679,-0.474956 -1.112862,-0.845566 -0.06144,-0.08574 -0.126465,-0.169028 -0.184324,-0.257229 -0.316114,-0.481889 -0.530001,-1.024777 -0.647227,-1.587925 -0.01651,-0.1149538 -0.03825,-0.229276 -0.04951,-0.3448609 -0.05889,-0.6044326 0.02951,-1.2100996 0.150154,-1.8012722 0.07532,-0.3178706 0.09704,-0.4402785 0.200006,-0.7512602 0.153448,-0.4634328 0.364728,-0.9069102 0.643657,-1.3082434 0.273961,-0.3504269 0.581713,-0.7197458 1.027708,-0.8493107 0.06552,-0.019034 0.134186,-0.024752 0.201279,-0.037126 0.06569,-1.598e-4 0.131517,-0.00483 0.197057,-4.763e-4 0.126542,0.00841 0.586163,0.1054883 -0.14432,-0.071033 -0.0639,-0.015441 0.125831,0.038365 0.187508,0.061108 0.163211,0.060181 0.20125,0.08499 0.356192,0.1633075 0.233559,0.1452702 0.464611,0.3020377 0.632018,0.5245938 z" />
  </g>
</svg>
